<?xml version="1.0" encoding="UTF-8"?>
<svg id="Layer_1" data-name="Layer 1" xmlns="http://www.w3.org/2000/svg" version="1.1" viewBox="0 0 256 256">
  <defs>
    <style>
      .cls-1 {
        fill: {indicator};
      }

      .cls-1, .cls-2, .cls-3, .cls-4, .cls-5 {
        stroke-width: 0px;
      }

      .cls-2 {
        display: none;
        fill: #000;
      }

      .cls-3 {
        fill: none;
      }

      .cls-4 {
        fill: {ring_stroke};
      }

      .cls-5 {
        fill: {ring_fill};
      }
    </style>
  </defs>
  <path class="cls-2" d="M128,149.8c-12,0-21.8-9.8-21.8-21.8s9.8-21.8,21.8-21.8,21.8,9.8,21.8,21.8-9.8,21.8-21.8,21.8ZM128,114.2c-7.6,0-13.8,6.2-13.8,13.8s6.2,13.8,13.8,13.8,13.8-6.2,13.8-13.8-6.2-13.8-13.8-13.8Z"/>
  <path class="cls-1" d="M176.2,128h-20c0-7.8-3.2-14.8-8.3-20l14.1-14.1c8.7,8.7,14.1,20.8,14.1,34.1Z"/>
  <rect class="cls-3" x="49" y="49" width="158" height="158"/>
  <g>
    <path class="cls-5" d="M128,148.2c-11.1,0-20.2-9-20.2-20.2s9-20.2,20.2-20.2,20.2,9,20.2,20.2-9,20.2-20.2,20.2ZM128,115.2c-7.1,0-12.8,5.7-12.8,12.8s5.7,12.8,12.8,12.8,12.8-5.7,12.8-12.8-5.7-12.8-12.8-12.8Z"/>
    <path class="cls-4" d="M128,108.3c10.8,0,19.7,8.8,19.7,19.7s-8.8,19.7-19.7,19.7-19.7-8.8-19.7-19.7,8.8-19.7,19.7-19.7M128,141.3c7.3,0,13.3-6,13.3-13.3s-6-13.3-13.3-13.3-13.3,6-13.3,13.3,6,13.3,13.3,13.3M128,107.3c-11.4,0-20.7,9.3-20.7,20.7s9.3,20.7,20.7,20.7,20.7-9.3,20.7-20.7-9.3-20.7-20.7-20.7h0ZM128,140.3c-6.8,0-12.3-5.5-12.3-12.3s5.5-12.3,12.3-12.3,12.3,5.5,12.3,12.3-5.5,12.3-12.3,12.3h0Z"/>
  </g>
</svg>