<?xml version="1.0" encoding="UTF-8"?>
<svg id="Layer_1" data-name="Layer 1" xmlns="http://www.w3.org/2000/svg" baseProfile="tiny" version="1.2" viewBox="0 0 256 256">
  <defs>
    <style>
      .cls-indicator { fill: {indicator}; }
      .cls-ring-fill { fill: {ring_fill}; }
      .cls-ring-stroke { fill: {ring_stroke}; }
    </style>
  </defs>
  <path class="cls-ring-stroke" d="M128,149.8c-12,0-21.8-9.8-21.8-21.8s9.8-21.8,21.8-21.8,21.8,9.8,21.8,21.8-9.8,21.8-21.8,21.8ZM128,114.2c-7.6,0-13.8,6.2-13.8,13.8s6.2,13.8,13.8,13.8,13.8-6.2,13.8-13.8-6.2-13.8-13.8-13.8Z" stroke-width="0"/>
  <g>
    <path class="cls-ring-fill" d="M128,148.2c-11.1,0-20.2-9-20.2-20.2s9-20.2,20.2-20.2,20.2,9,20.2,20.2-9,20.2-20.2,20.2ZM128,115.2c-7.1,0-12.8,5.7-12.8,12.8s5.7,12.8,12.8,12.8,12.8-5.7,12.8-12.8-5.7-12.8-12.8-12.8Z" stroke-width="0"/>
    <path class="cls-ring-fill" d="M128,108.3c10.8,0,19.7,8.8,19.7,19.7s-8.8,19.7-19.7,19.7-19.7-8.8-19.7-19.7,8.8-19.7,19.7-19.7M128,141.3c7.3,0,13.3-6,13.3-13.3s-6-13.3-13.3-13.3-13.3,6-13.3,13.3,6,13.3,13.3,13.3M128,107.3c-11.4,0-20.7,9.3-20.7,20.7s9.3,20.7,20.7,20.7,20.7-9.3,20.7-20.7-9.3-20.7-20.7-20.7h0ZM128,140.3c-6.8,0-12.3-5.5-12.3-12.3s5.5-12.3,12.3-12.3,12.3,5.5,12.3,12.3-5.5,12.3-12.3,12.3h0Z" stroke-width="0"/>
  </g>
  <path class="cls-indicator" d="M158.95,130.26h0c-1.56,0-2.76-1.32-2.68-2.88.17-3.46-.6-6.19-2.24-10.17s-3.04-6.45-5.6-8.77c-1.15-1.05-1.24-2.83-.14-3.93h0c.9-.9,2.31-1.06,3.38-.36l10.7,6.93c1.52.98,2.27,2.8,1.89,4.57l-2.66,12.47c-.27,1.25-1.37,2.14-2.65,2.14Z" stroke-width="0"/>
</svg>
